<svg width="140" height="120" viewBox="0 0 140 120" fill="none" xmlns="http://www.w3.org/2000/svg">
<path d="M-15 102.5C-15 107.51 -13.0099 112.314 -9.46757 115.857C-5.92522 119.399 -1.12076 121.389 3.88889 121.389H136.111C141.121 121.389 145.925 119.399 149.468 115.857C153.01 112.314 155 107.51 155 102.5V78.8891H-15V102.5Z" fill="#138808"/>
<path d="M155 41.1108V17.4997C155 12.4901 153.01 7.68562 149.468 4.14327C145.925 0.600913 141.121 -1.38916 136.111 -1.38916H3.88889C-1.12076 -1.38916 -5.92522 0.600913 -9.46757 4.14327C-13.0099 7.68562 -15 12.4901 -15 17.4997V41.1108H155Z" fill="#FF9933"/>
<path d="M-15 39.5385H155V80.466H-15V39.5385Z" fill="#F7F7F7"/>
<path d="M69.9999 78.8886C80.432 78.8886 88.8888 70.4318 88.8888 59.9997C88.8888 49.5677 80.432 41.1108 69.9999 41.1108C59.5679 41.1108 51.111 49.5677 51.111 59.9997C51.111 70.4318 59.5679 78.8886 69.9999 78.8886Z" fill="#000080"/>
<path d="M70 75.9375C78.802 75.9375 85.9375 68.802 85.9375 60C85.9375 51.1979 78.802 44.0625 70 44.0625C61.198 44.0625 54.0625 51.1979 54.0625 60C54.0625 68.802 61.198 75.9375 70 75.9375Z" fill="#F7F7F7"/>
<path d="M70.4723 54.0974L70 57.1668L69.5278 54.0974L70 44.889L70.4723 54.0974ZM66.09 45.4038L68.0167 54.4185L69.2681 57.2613L68.9281 54.1776L66.09 45.4038ZM62.4445 46.9149L66.6378 55.1221L68.5834 57.5446L67.4595 54.6499L62.4445 46.9149ZM59.3137 49.3138L65.4903 56.161L67.9978 57.9979L66.1609 55.4904L59.3137 49.3138ZM56.9148 52.4446L64.6498 57.4596L67.5445 58.5835L65.122 56.6379L56.9148 52.4446ZM55.4037 56.0901L64.1776 58.9282L67.2612 59.2682L64.4184 58.0168L55.4037 56.0901ZM54.8889 60.0001L64.0973 60.4724L67.1667 60.0001L64.0973 59.5279L54.8889 60.0001ZM55.4037 63.9101L64.4184 61.9835L67.2612 60.7321L64.1776 61.0721L55.4037 63.9101ZM56.9148 67.5557L65.122 63.3624L67.5445 61.4168L64.6498 62.5407L56.9148 67.5557ZM59.3137 70.6865L66.1609 64.5099L67.9978 62.0024L65.4903 63.8393L59.3137 70.6865ZM62.4445 73.0854L67.4595 65.3504L68.5834 62.4557L66.6378 64.8782L62.4445 73.0854ZM66.09 74.5965L68.9281 65.8226L69.2681 62.739L68.0167 65.5818L66.09 74.5965ZM70 75.1113L70.4723 65.9029L70 62.8335L69.5278 65.9029L70 75.1113ZM73.91 74.5965L71.9834 65.5818L70.732 62.739L71.072 65.8226L73.91 74.5965ZM77.5556 73.0854L73.3623 64.8782L71.4167 62.4557L72.5406 65.3504L77.5556 73.0854ZM80.6864 70.6865L74.5098 63.8393L72.0023 62.0024L73.8392 64.5099L80.6864 70.6865ZM83.0853 67.5557L75.3503 62.5407L72.4556 61.4168L74.8781 63.3624L83.0853 67.5557ZM84.5964 63.9101L75.8225 61.0721L72.7389 60.7321L75.5817 61.9835L84.5964 63.9101ZM85.1112 60.0001L75.9028 59.5279L72.8334 60.0001L75.9028 60.4724L85.1112 60.0001ZM84.5964 56.0901L75.5817 58.0168L72.7389 59.2682L75.8225 58.9282L84.5964 56.0901ZM83.0853 52.4446L74.8781 56.6379L72.4556 58.5835L75.3503 57.4596L83.0853 52.4446ZM80.6864 49.3138L73.8392 55.4904L72.0023 57.9979L74.5098 56.161L80.6864 49.3138ZM77.5556 46.9149L72.5406 54.6499L71.4167 57.5446L73.3623 55.1221L77.5556 46.9149ZM73.91 45.4038L71.072 54.1776L70.732 57.2613L71.9834 54.4185L73.91 45.4038Z" fill="#6666B3"/>
<path d="M67.9223 45.1676C68.4439 45.1676 68.8667 44.7448 68.8667 44.2232C68.8667 43.7016 68.4439 43.2787 67.9223 43.2787C67.4007 43.2787 66.9778 43.7016 66.9778 44.2232C66.9778 44.7448 67.4007 45.1676 67.9223 45.1676Z" fill="#000080"/>
<path d="M63.9083 46.2439C64.4299 46.2439 64.8527 45.821 64.8527 45.2994C64.8527 44.7778 64.4299 44.355 63.9083 44.355C63.3867 44.355 62.9639 44.7778 62.9639 45.2994C62.9639 45.821 63.3867 46.2439 63.9083 46.2439Z" fill="#000080"/>
<path d="M60.3099 48.3171C60.8315 48.3171 61.2544 47.8942 61.2544 47.3726C61.2544 46.851 60.8315 46.4282 60.3099 46.4282C59.7883 46.4282 59.3655 46.851 59.3655 47.3726C59.3655 47.8942 59.7883 48.3171 60.3099 48.3171Z" fill="#000080"/>
<path d="M57.3728 51.2548C57.8944 51.2548 58.3173 50.832 58.3173 50.3103C58.3173 49.7887 57.8944 49.3659 57.3728 49.3659C56.8512 49.3659 56.4284 49.7887 56.4284 50.3103C56.4284 50.832 56.8512 51.2548 57.3728 51.2548Z" fill="#000080"/>
<path d="M55.2997 54.8526C55.8213 54.8526 56.2442 54.4297 56.2442 53.9081C56.2442 53.3865 55.8213 52.9637 55.2997 52.9637C54.7781 52.9637 54.3553 53.3865 54.3553 53.9081C54.3553 54.4297 54.7781 54.8526 55.2997 54.8526Z" fill="#000080"/>
<path d="M54.223 58.8666C54.7446 58.8666 55.1675 58.4437 55.1675 57.9221C55.1675 57.4005 54.7446 56.9777 54.223 56.9777C53.7014 56.9777 53.2786 57.4005 53.2786 57.9221C53.2786 58.4437 53.7014 58.8666 54.223 58.8666Z" fill="#000080"/>
<path d="M54.223 63.0227C54.7446 63.0227 55.1675 62.5998 55.1675 62.0782C55.1675 61.5566 54.7446 61.1338 54.223 61.1338C53.7014 61.1338 53.2786 61.5566 53.2786 62.0782C53.2786 62.5998 53.7014 63.0227 54.223 63.0227Z" fill="#000080"/>
<path d="M55.2997 67.036C55.8213 67.036 56.2442 66.6131 56.2442 66.0915C56.2442 65.5699 55.8213 65.1471 55.2997 65.1471C54.7781 65.1471 54.3553 65.5699 54.3553 66.0915C54.3553 66.6131 54.7781 67.036 55.2997 67.036Z" fill="#000080"/>
<path d="M57.3728 70.6344C57.8944 70.6344 58.3173 70.2116 58.3173 69.69C58.3173 69.1684 57.8944 68.7456 57.3728 68.7456C56.8512 68.7456 56.4284 69.1684 56.4284 69.69C56.4284 70.2116 56.8512 70.6344 57.3728 70.6344Z" fill="#000080"/>
<path d="M60.3099 73.5715C60.8315 73.5715 61.2544 73.1487 61.2544 72.6271C61.2544 72.1055 60.8315 71.6826 60.3099 71.6826C59.7883 71.6826 59.3655 72.1055 59.3655 72.6271C59.3655 73.1487 59.7883 73.5715 60.3099 73.5715Z" fill="#000080"/>
<path d="M63.9083 75.6445C64.4299 75.6445 64.8527 75.2217 64.8527 74.7001C64.8527 74.1785 64.4299 73.7556 63.9083 73.7556C63.3867 73.7556 62.9639 74.1785 62.9639 74.7001C62.9639 75.2217 63.3867 75.6445 63.9083 75.6445Z" fill="#000080"/>
<path d="M67.9223 76.7216C68.4439 76.7216 68.8667 76.2988 68.8667 75.7772C68.8667 75.2556 68.4439 74.8327 67.9223 74.8327C67.4007 74.8327 66.9778 75.2556 66.9778 75.7772C66.9778 76.2988 67.4007 76.7216 67.9223 76.7216Z" fill="#000080"/>
<path d="M72.0778 76.7216C72.5994 76.7216 73.0223 76.2988 73.0223 75.7772C73.0223 75.2556 72.5994 74.8327 72.0778 74.8327C71.5562 74.8327 71.1334 75.2556 71.1334 75.7772C71.1334 76.2988 71.5562 76.7216 72.0778 76.7216Z" fill="#000080"/>
<path d="M76.0916 75.6445C76.6132 75.6445 77.0361 75.2217 77.0361 74.7001C77.0361 74.1785 76.6132 73.7556 76.0916 73.7556C75.57 73.7556 75.1472 74.1785 75.1472 74.7001C75.1472 75.2217 75.57 75.6445 76.0916 75.6445Z" fill="#000080"/>
<path d="M79.69 73.5715C80.2116 73.5715 80.6344 73.1487 80.6344 72.6271C80.6344 72.1055 80.2116 71.6826 79.69 71.6826C79.1684 71.6826 78.7456 72.1055 78.7456 72.6271C78.7456 73.1487 79.1684 73.5715 79.69 73.5715Z" fill="#000080"/>
<path d="M82.6273 70.6344C83.1489 70.6344 83.5717 70.2116 83.5717 69.69C83.5717 69.1684 83.1489 68.7456 82.6273 68.7456C82.1057 68.7456 81.6828 69.1684 81.6828 69.69C81.6828 70.2116 82.1057 70.6344 82.6273 70.6344Z" fill="#000080"/>
<path d="M84.7002 67.036C85.2218 67.036 85.6447 66.6131 85.6447 66.0915C85.6447 65.5699 85.2218 65.1471 84.7002 65.1471C84.1786 65.1471 83.7558 65.5699 83.7558 66.0915C83.7558 66.6131 84.1786 67.036 84.7002 67.036Z" fill="#000080"/>
<path d="M85.7769 63.0227C86.2985 63.0227 86.7213 62.5998 86.7213 62.0782C86.7213 61.5566 86.2985 61.1338 85.7769 61.1338C85.2553 61.1338 84.8324 61.5566 84.8324 62.0782C84.8324 62.5998 85.2553 63.0227 85.7769 63.0227Z" fill="#000080"/>
<path d="M85.7769 58.8666C86.2985 58.8666 86.7213 58.4437 86.7213 57.9221C86.7213 57.4005 86.2985 56.9777 85.7769 56.9777C85.2553 56.9777 84.8324 57.4005 84.8324 57.9221C84.8324 58.4437 85.2553 58.8666 85.7769 58.8666Z" fill="#000080"/>
<path d="M84.7002 54.8526C85.2218 54.8526 85.6447 54.4297 85.6447 53.9081C85.6447 53.3865 85.2218 52.9637 84.7002 52.9637C84.1786 52.9637 83.7558 53.3865 83.7558 53.9081C83.7558 54.4297 84.1786 54.8526 84.7002 54.8526Z" fill="#000080"/>
<path d="M82.6273 51.2548C83.1489 51.2548 83.5717 50.832 83.5717 50.3103C83.5717 49.7887 83.1489 49.3659 82.6273 49.3659C82.1057 49.3659 81.6828 49.7887 81.6828 50.3103C81.6828 50.832 82.1057 51.2548 82.6273 51.2548Z" fill="#000080"/>
<path d="M79.69 48.3171C80.2116 48.3171 80.6344 47.8942 80.6344 47.3726C80.6344 46.851 80.2116 46.4282 79.69 46.4282C79.1684 46.4282 78.7456 46.851 78.7456 47.3726C78.7456 47.8942 79.1684 48.3171 79.69 48.3171Z" fill="#000080"/>
<path d="M76.0916 46.2439C76.6132 46.2439 77.0361 45.821 77.0361 45.2994C77.0361 44.7778 76.6132 44.355 76.0916 44.355C75.57 44.355 75.1472 44.7778 75.1472 45.2994C75.1472 45.821 75.57 46.2439 76.0916 46.2439Z" fill="#000080"/>
<path d="M72.0778 45.1676C72.5994 45.1676 73.0223 44.7448 73.0223 44.2232C73.0223 43.7016 72.5994 43.2787 72.0778 43.2787C71.5562 43.2787 71.1334 43.7016 71.1334 44.2232C71.1334 44.7448 71.5562 45.1676 72.0778 45.1676Z" fill="#000080"/>
<path d="M70 64.25C72.3472 64.25 74.25 62.3472 74.25 60C74.25 57.6528 72.3472 55.75 70 55.75C67.6528 55.75 65.75 57.6528 65.75 60C65.75 62.3472 67.6528 64.25 70 64.25Z" fill="#000080"/>
</svg>
