<svg width="66" height="40" viewBox="0 0 66 40" fill="none"
    xmlns="http://www.w3.org/2000/svg">
    <path d="M47.8558 23.7546C47.8558 27.7755 46.2586 31.6317 43.4154 34.4748C40.5722 37.318 36.716 38.9153 32.6951 38.9153C28.6743 38.9153 24.8181 37.318 21.9749 34.4748C19.1317 31.6317 17.5344 27.7755 17.5344 23.7546" stroke="#3F434A" stroke-width="2.5" stroke-miterlimit="10" stroke-linecap="round"/>
    <path d="M51.9527 23.7538L34.5673 6.73828C34.0686 6.25016 33.3986 5.97681 32.7008 5.97681C32.003 5.97681 31.3329 6.25016 30.8343 6.73828L13.4515 23.7538" stroke="#3F434A" stroke-width="2.5" stroke-miterlimit="10" stroke-linecap="round"/>
    <path d="M59.3312 38.4501V1.45276" stroke="#3F434A" stroke-width="2.5" stroke-linecap="round" stroke-linejoin="round"/>
    <path d="M54.5482 4.87999L59.3303 1.08289L64.4157 4.87999" stroke="#3F434A" stroke-width="2.5" stroke-linecap="round" stroke-linejoin="round"/>
    <path d="M54.5482 10.1897L59.3303 6.39258L64.4157 10.1897" stroke="#3F434A" stroke-width="2.5" stroke-linecap="round" stroke-linejoin="round"/>
    <path d="M54.5482 15.3842L59.3303 11.5845L64.4157 15.3842" stroke="#3F434A" stroke-width="2.5" stroke-linecap="round" stroke-linejoin="round"/>
    <path d="M54.5456 20.4582L59.3277 16.6611L64.4131 20.4582" stroke="#3F434A" stroke-width="2.5" stroke-linecap="round" stroke-linejoin="round"/>
    <path d="M32.7021 38.496C36.6178 38.496 39.7921 34.9021 39.7921 30.4687C39.7921 26.0353 36.6178 22.4413 32.7021 22.4413C28.7864 22.4413 25.6121 26.0353 25.6121 30.4687C25.6121 34.9021 28.7864 38.496 32.7021 38.496Z" stroke="#3F434A" stroke-width="2.5" stroke-miterlimit="10" stroke-linecap="round"/>
    <path d="M6.30685 1.63818V38.6355" stroke="#3F434A" stroke-width="2.5" stroke-linecap="round" stroke-linejoin="round"/>
    <path d="M1.52473 5.07148L6.30685 1.26831L11.3922 5.07148" stroke="#3F434A" stroke-width="2.5" stroke-linecap="round" stroke-linejoin="round"/>
    <path d="M1.52473 10.3725L6.30685 6.578L11.3922 10.3725" stroke="#3F434A" stroke-width="2.5" stroke-linecap="round" stroke-linejoin="round"/>
    <path d="M1.52473 15.5696L6.30685 11.7699L11.3922 15.5696" stroke="#3F434A" stroke-width="2.5" stroke-linecap="round" stroke-linejoin="round"/>
    <path d="M1.52127 20.6437L6.30339 16.8466L11.3887 20.6437" stroke="#3F434A" stroke-width="2.5" stroke-linecap="round" stroke-linejoin="round"/>
</svg>
    