<svg width="90" height="90" viewBox="0 0 90 90" fill="none" xmlns="http://www.w3.org/2000/svg">
    <mask id="path-1-inside-1_308_587" fill="white">
        <path d="M66.5722 57.9881V12.6138C66.5722 9.42532 63.9467 6.83887 60.7102 6.83887H13.4069H7.88445C4.64791 6.83887 2.02246 9.42532 2.02246 12.6138V82.2027C2.02246 85.3911 4.64791 87.9776 7.88445 87.9776H13.4069H60.7102C63.9467 87.9776 66.5722 85.3911 66.5722 82.2027V69.5826"/>
    </mask>
    <path d="M69.1722 57.9881V12.6138H63.9722V57.9881H69.1722ZM69.1722 12.6138C69.1722 7.95283 65.3458 4.23887 60.7102 4.23887V9.43887C62.5476 9.43887 63.9722 10.8978 63.9722 12.6138H69.1722ZM60.7102 4.23887H13.4069V9.43887H60.7102V4.23887ZM13.4069 4.23887H7.88445V9.43887H13.4069V4.23887ZM7.88445 4.23887C3.24879 4.23887 -0.577539 7.95283 -0.577539 12.6138H4.62246C4.62246 10.8978 6.04703 9.43887 7.88445 9.43887V4.23887ZM-0.577539 12.6138V82.2027H4.62246V12.6138H-0.577539ZM-0.577539 82.2027C-0.577539 86.8636 3.24879 90.5776 7.88445 90.5776V85.3776C6.04703 85.3776 4.62246 83.9186 4.62246 82.2027H-0.577539ZM7.88445 90.5776H13.4069V85.3776H7.88445V90.5776ZM13.4069 90.5776H60.7102V85.3776H13.4069V90.5776ZM60.7102 90.5776C65.3458 90.5776 69.1722 86.8636 69.1722 82.2027H63.9722C63.9722 83.9186 62.5476 85.3776 60.7102 85.3776V90.5776ZM69.1722 82.2027V69.5826H63.9722V82.2027H69.1722Z" fill="#6759FF" mask="url(#path-1-inside-1_308_587)"/>
    <path d="M15.2407 2V11.387" stroke="#6759FF" stroke-width="2.6" stroke-miterlimit="10" stroke-linecap="round"/>
    <path d="M15.1055 17.8758C16.8805 17.8758 18.3194 16.4583 18.3194 14.7096C18.3194 12.961 16.8805 11.5435 15.1055 11.5435C13.3305 11.5435 11.8916 12.961 11.8916 14.7096C11.8916 16.4583 13.3305 17.8758 15.1055 17.8758Z" stroke="#6759FF" stroke-width="2.6" stroke-miterlimit="10" stroke-linecap="round"/>
    <path d="M27.7109 2V11.387" stroke="#6759FF" stroke-width="2.6" stroke-miterlimit="10" stroke-linecap="round"/>
    <path d="M27.5977 17.8751C29.3727 17.8751 30.8116 16.4575 30.8116 14.7089C30.8116 12.9603 29.3727 11.5427 27.5977 11.5427C25.8227 11.5427 24.3838 12.9603 24.3838 14.7089C24.3838 16.4575 25.8227 17.8751 27.5977 17.8751Z" stroke="#6759FF" stroke-width="2.6" stroke-miterlimit="10" stroke-linecap="round"/>
    <path d="M39.7974 2V11.387" stroke="#6759FF" stroke-width="2.6" stroke-miterlimit="10" stroke-linecap="round"/>
    <path d="M39.6612 17.8751C41.4361 17.8751 42.8751 16.4575 42.8751 14.7089C42.8751 12.9603 41.4361 11.5427 39.6612 11.5427C37.8862 11.5427 36.4473 12.9603 36.4473 14.7089C36.4473 16.4575 37.8862 17.8751 39.6612 17.8751Z" stroke="#6759FF" stroke-width="2.6" stroke-miterlimit="10" stroke-linecap="round"/>
    <path d="M51.8618 2V11.387" stroke="#6759FF" stroke-width="2.6" stroke-miterlimit="10" stroke-linecap="round"/>
    <path d="M51.7256 17.8758C53.5006 17.8758 54.9395 16.4583 54.9395 14.7096C54.9395 12.961 53.5006 11.5435 51.7256 11.5435C49.9506 11.5435 48.5117 12.961 48.5117 14.7096C48.5117 16.4583 49.9506 17.8758 51.7256 17.8758Z" stroke="#6759FF" stroke-width="2.6" stroke-miterlimit="10" stroke-linecap="round"/>
    <path d="M15.8961 40.3951C19.6585 40.3951 22.7086 37.3903 22.7086 33.6837C22.7086 29.9771 19.6585 26.9723 15.8961 26.9723C12.1336 26.9723 9.0835 29.9771 9.0835 33.6837C9.0835 37.3903 12.1336 40.3951 15.8961 40.3951Z" stroke="#6759FF" stroke-width="2.6" stroke-miterlimit="10" stroke-linecap="round"/>
    <path d="M13.1802 33.3045L15.2172 35.3335L18.9516 31.6991" stroke="#6759FF" stroke-width="2.6" stroke-miterlimit="10" stroke-linecap="round" stroke-linejoin="round"/>
    <path d="M29.7026 31.3193H59.352" stroke="#6759FF" stroke-width="2.6" stroke-miterlimit="10" stroke-linecap="round" stroke-linejoin="round"/>
    <path d="M29.7026 35.333H45.5458" stroke="#6759FF" stroke-width="2.6" stroke-miterlimit="10" stroke-linecap="round" stroke-linejoin="round"/>
    <path d="M15.8961 59.7035C19.6585 59.7035 22.7086 56.6988 22.7086 52.9922C22.7086 49.2856 19.6585 46.2808 15.8961 46.2808C12.1336 46.2808 9.0835 49.2856 9.0835 52.9922C9.0835 56.6988 12.1336 59.7035 15.8961 59.7035Z" stroke="#6759FF" stroke-width="2.6" stroke-miterlimit="10" stroke-linecap="round"/>
    <path d="M13.1802 52.6359L15.2172 54.6426L18.9516 51.0305" stroke="#6759FF" stroke-width="2.6" stroke-miterlimit="10" stroke-linecap="round" stroke-linejoin="round"/>
    <path d="M29.7026 50.6506H59.352" stroke="#6759FF" stroke-width="2.6" stroke-miterlimit="10" stroke-linecap="round" stroke-linejoin="round"/>
    <path d="M29.7026 54.6646H45.5458" stroke="#6759FF" stroke-width="2.6" stroke-miterlimit="10" stroke-linecap="round" stroke-linejoin="round"/>
    <path d="M15.8961 79.0361C19.6585 79.0361 22.7086 76.0313 22.7086 72.3247C22.7086 68.6181 19.6585 65.6133 15.8961 65.6133C12.1336 65.6133 9.0835 68.6181 9.0835 72.3247C9.0835 76.0313 12.1336 79.0361 15.8961 79.0361Z" stroke="#6759FF" stroke-width="2.6" stroke-miterlimit="10" stroke-linecap="round"/>
    <path d="M13.1802 71.9683L15.2172 73.975L18.9516 70.3406" stroke="#6759FF" stroke-width="2.6" stroke-miterlimit="10" stroke-linecap="round" stroke-linejoin="round"/>
    <path d="M29.7026 69.9611H49.0766" stroke="#6759FF" stroke-width="2.6" stroke-miterlimit="10" stroke-linecap="round" stroke-linejoin="round"/>
    <path d="M29.7026 73.975H45.5458" stroke="#6759FF" stroke-width="2.6" stroke-miterlimit="10" stroke-linecap="round" stroke-linejoin="round"/>
    <path d="M55.2788 65.1227L48.8284 69.5821L44.3018 78.055L54.1472 77.9435L85.9241 56.6499C88.1195 55.1783 88.6627 52.2128 87.1237 50.0946L87.0784 50.0277C85.6072 47.9541 82.7102 47.4189 80.56 48.8236L61.3898 61.3768" stroke="#1AE5BE" stroke-width="2.6" stroke-miterlimit="10" stroke-linecap="round" stroke-linejoin="round"/>
    <path d="M80.2886 48.9795L85.5621 56.8949" stroke="#1AE5BE" stroke-width="2.6" stroke-miterlimit="10" stroke-linecap="round" stroke-linejoin="round"/>
    <path d="M48.8286 69.5823L54.1474 77.9436" stroke="#1AE5BE" stroke-width="2.6" stroke-miterlimit="10" stroke-linecap="round" stroke-linejoin="round"/>
    <path d="M82.8685 52.8364L51.499 73.7733" stroke="#1AE5BE" stroke-width="2.6" stroke-miterlimit="10" stroke-linecap="round" stroke-linejoin="round"/>
</svg>
