<svg width="140" height="120" viewBox="0 0 140 120" fill="none" xmlns="http://www.w3.org/2000/svg">
    <path d="M58.9091 18.4364V27.6545H162.45C162.305 24.6818 161.995 20.9236 160.882 18.4364" fill="#EC1C24"/>
    <path d="M156 9.21818H58.9091V18.4364H160.882C159.775 14.9973 158.127 11.8609 156 9.21818Z" fill="#E6E7E8"/>
    <path d="M135.273 0H58.9091V9.21818H156C151.448 3.51818 143.956 0 135.273 0Z" fill="#EC1C24"/>
    <path d="M162.45 27.6545H58.9091V36.8727H162.545V30.7282C162.545 30.18 162.51 29.6455 162.494 29.1082C162.483 28.9609 162.466 28.5818 162.45 27.6545Z" fill="#E6E7E8"/>
    <path d="M58.9091 46.0909H162.545V36.8727H58.9091V46.0909Z" fill="#EC1C24"/>
    <path d="M58.9091 55.3091H162.545V46.0909H58.9091V55.3091Z" fill="#E6E7E8"/>
    <path d="M58.9091 55.3091H162.545V64.5273H58.9091V55.3091Z" fill="#EC1C24"/>
    <path d="M-12 64.5273V73.7455H162.545V64.5273H58.9091L-12 64.5273Z" fill="#E6E7E8"/>
    <path d="M-12 73.7455H162.545V82.9636H-12V73.7455Z" fill="#EC1C24"/>
    <path d="M-11.9864 88.6336C-11.9864 88.6336 -12.0109 90.8673 -11.9455 92.1818H162.491C162.567 90.8345 162.532 88.6336 162.532 88.6336L162.545 82.9636H-12L-11.9864 88.6336Z" fill="#E6E7E8"/>
    <path d="M15.2727 120H135.273C143.981 120 151.219 116.836 156.164 110.618H-5.64545C-0.54 116.973 6.83455 120 15.2591 120" fill="#EC1C24"/>
    <path d="M-5.63182 110.618H156.177C158.334 107.877 159.945 104.748 160.923 101.4H-10.35C-9.35428 104.738 -7.75005 107.863 -5.61818 110.618" fill="#E6E7E8"/>
    <path d="M-10.3636 101.4H160.909C161.802 98.4014 162.333 95.3066 162.491 92.1818H-11.9455C-11.6755 95.3345 -11.4245 97.7155 -10.3636 101.4Z" fill="#EC1C24"/>
    <path d="M58.9091 0H15.2727C-2.80091 0 -12 13.4318 -12 30V64.5273L58.9091 64.5273V0Z" fill="#176496"/>
    <path d="M-4.36909 16.2982L-2.88545 15.1582L-1.40455 16.2982L-1.98 14.4655L-0.504545 13.3445H-2.32636L-2.89091 11.5036L-3.45273 13.3445H-5.27182L-3.79091 14.4655L-4.36909 16.2982ZM5.43273 16.2982L6.91636 15.1582L8.39727 16.2982L7.82455 14.4655L9.29727 13.3445H7.47818L6.91364 11.5036L6.35182 13.3445H4.52727L6.00818 14.4655L5.43273 16.2982ZM16.2464 16.2982L17.7273 15.1582L19.2109 16.2982L18.6355 14.4655L20.1082 13.3445H18.3L17.7273 11.5036L17.1627 13.3445H15.3545L16.8191 14.4655L16.2464 16.2982ZM26.9809 16.2982L28.4618 15.1582L29.9455 16.2982L29.3727 14.4655L30.8455 13.3445H29.0182L28.4618 11.5036L27.9 13.3445H26.0782L27.5564 14.4655L26.9809 16.2982ZM37.7536 16.2982L39.2373 15.1582L40.7182 16.2982L40.1455 14.4655L41.6209 13.3445H39.7964L39.2345 11.5036L38.6727 13.3445H36.8536L38.3264 14.4655L37.7536 16.2982ZM0.848182 21.0845L2.32909 19.9473L3.81 21.0845L3.24 19.2545L4.71273 18.1336H2.89091L2.32636 16.2955L1.77273 18.1336H-0.0545457L1.42091 19.2545L0.848182 21.0845ZM10.6527 21.0845L12.1336 19.9473L13.6145 21.0845L13.0418 19.2545L14.5145 18.1336H12.6818L12.1336 16.2955L11.5691 18.1336H9.75L11.2255 19.2545L10.6527 21.0845ZM21.4664 21.0845L22.9445 19.9473L24.4255 21.0845L23.8527 19.2545L25.3282 18.1336H23.5091L22.9445 16.2955L22.38 18.1336H20.5582L22.0336 19.2545L21.4664 21.0845ZM32.1955 21.0845L33.6791 19.9473L35.1627 21.0845L34.5818 19.2545L36.06 18.1336H34.2409L33.6764 16.2955L33.1173 18.1336H31.2955L32.7709 19.2545L32.1955 21.0845ZM42.9818 21.0845L44.4518 19.9473L45.9327 21.0845L45.3545 19.2545L46.8327 18.1336H45.0164L44.4491 16.2955L43.89 18.1336H42.0682L43.5436 19.2545L42.9818 21.0845ZM49.0555 16.2982L50.5364 15.1582L52.02 16.2982L51.4445 14.4655L52.9173 13.3445H51.1091L50.5336 11.5036L49.9718 13.3445H48.1364L49.6282 14.4655L49.0555 16.2982ZM-4.51364 54.6L-3.03 53.4736L-1.54909 54.6L-2.12182 52.7836L-0.649091 51.66L-2.46818 51.6655L-3.03545 49.8273L-3.59182 51.6655L-5.41636 51.66L-3.94091 52.7836L-4.51364 54.6ZM5.29091 54.6L6.77182 53.4736L8.25545 54.6L7.68 52.7836L9.15273 51.66L7.33636 51.6655L6.76909 49.8273L6.21 51.6655L4.39091 51.66L5.86364 52.7836L5.29091 54.6ZM16.1045 54.6L17.5855 53.4736L19.0691 54.6L18.4936 52.7836L19.9664 51.66L18.1364 51.6655L17.5827 49.8273L17.0209 51.6655L15.2018 51.66L16.6773 52.7836L16.1045 54.6ZM26.8391 54.6L28.32 53.4736L29.8009 54.6L29.2364 52.7836L30.7009 51.66L28.8791 51.6655L28.3173 49.8273L27.7555 51.6655L25.9364 51.66L27.4091 52.7836L26.8391 54.6ZM37.6091 54.6L39.0927 53.4736L40.5764 54.6L40.0091 52.7836L41.4736 51.66L39.6545 51.6655L39.09 49.8273L38.5309 51.6655L36.7091 51.66L38.1818 52.7836L37.6091 54.6ZM48.9109 54.6L50.3918 53.4736L51.8755 54.6L51.3 52.7836L52.7755 51.66L50.9455 51.6655L50.3891 49.8273L49.8273 51.6655L48 51.66L49.4836 52.7836L48.9109 54.6ZM-4.36909 25.8764L-2.88545 24.7364L-1.40455 25.8764L-1.98 24.0436L-0.504545 22.9227L-2.32636 22.9282L-2.89091 21.0845L-3.45273 22.9282L-5.27182 22.9227L-3.79091 24.0436L-4.36909 25.8764ZM5.43273 25.8764L6.91636 24.7364L8.39727 25.8764L7.82455 24.0436L9.29727 22.9227L7.47818 22.9282L6.91364 21.0845L6.35182 22.9282L4.52727 22.9227L6.00818 24.0436L5.43273 25.8764ZM16.2464 25.8764L17.7273 24.7364L19.2109 25.8764L18.6355 24.0436L20.1082 22.9227L18.3 22.9282L17.7273 21.0845L17.1627 22.9282L15.3545 22.9227L16.8191 24.0436L16.2464 25.8764ZM26.9809 25.8764L28.4618 24.7364L29.9455 25.8764L29.3727 24.0436L30.8455 22.9227L29.0182 22.9282L28.4618 21.0845L27.9 22.9282L26.0782 22.9227L27.5564 24.0436L26.9809 25.8764ZM37.7536 25.8764L39.2373 24.7364L40.7182 25.8764L40.1455 24.0436L41.6209 22.9227L39.7964 22.9282L39.2345 21.0845L38.6727 22.9282L36.8536 22.9227L38.3264 24.0436L37.7536 25.8764ZM0.848182 30.6655L2.32909 29.5282L3.81 30.6655L3.24 28.8355L4.71273 27.7091H2.89091L2.32636 25.8764L1.77273 27.7091H-0.0545457L1.42091 28.8355L0.848182 30.6655ZM10.6527 30.6655L12.1336 29.5282L13.6145 30.6655L13.0418 28.8355L14.5145 27.7091H12.6818L12.1336 25.8764L11.5691 27.7091H9.75L11.2255 28.8355L10.6527 30.6655ZM21.4664 30.6655L22.9445 29.5282L24.4255 30.6655L23.8527 28.8355L25.3282 27.7091H23.5091L22.9445 25.8764L22.38 27.7091H20.5582L22.0336 28.8355L21.4664 30.6655ZM32.1955 30.6655L33.6791 29.5282L35.1627 30.6655L34.5818 28.8355L36.06 27.7091H34.2409L33.6764 25.8764L33.1173 27.7091H31.2955L32.7709 28.8355L32.1955 30.6655ZM42.9818 30.6655L44.4518 29.5282L45.9327 30.6655L45.3545 28.8355L46.8327 27.7091H45.0164L44.4491 25.8764L43.89 27.7091H42.0682L43.5436 28.8355L42.9818 30.6655ZM49.0555 25.8764L50.5364 24.7364L52.02 25.8764L51.4445 24.0436L52.9173 22.9227L51.1091 22.9282L50.5336 21.0845L49.9718 22.9282L48.1364 22.9227L49.6282 24.0436L49.0555 25.8764ZM-4.51364 35.4545L-3.03 34.3173L-1.54909 35.4545L-2.12455 33.6273L-0.649091 32.5036L-2.47091 32.5091L-3.03545 30.6655L-3.59182 32.5091L-5.41636 32.5036L-3.94091 33.6273L-4.51364 35.4545ZM5.29091 35.4545L6.77182 34.3173L8.25545 35.4545L7.68 33.6273L9.15273 32.5036L7.33636 32.5091L6.76909 30.6655L6.21 32.5091L4.39091 32.5036L5.86091 33.6273L5.29091 35.4545ZM16.1045 35.4545L17.5855 34.3173L19.0664 35.4545L18.4936 33.6273L19.9664 32.5036L18.1364 32.5091L17.5827 30.6655L17.0209 32.5091L15.2018 32.5036L16.6773 33.6273L16.1045 35.4545ZM26.8391 35.4545L28.3173 34.3173L29.8009 35.4545L29.2364 33.6273L30.7009 32.5036L28.8791 32.5091L28.3173 30.6655L27.7555 32.5091L25.9364 32.5036L27.4091 33.6273L26.8391 35.4545ZM37.6091 35.4545L39.0927 34.3173L40.5736 35.4545L40.0091 33.6273L41.4736 32.5036L39.6518 32.5091L39.09 30.6655L38.5309 32.5091L36.7091 32.5036L38.1818 33.6273L37.6091 35.4545ZM0.703636 40.2436L2.18455 39.1091L3.66545 40.2436L3.09545 38.4273L4.56546 37.2982H2.74364L2.18182 35.4545L1.62273 37.2982H-0.199091L1.27636 38.4273L0.703636 40.2436ZM10.5082 40.2436L11.9891 39.1091L13.47 40.2436L12.8973 38.4273L14.37 37.2982H12.5455L11.9864 35.4545L11.4245 37.2982H9.60273L11.0809 38.4273L10.5082 40.2436ZM21.3245 40.2436L22.8 39.1091L24.2836 40.2436L23.7 38.4273L25.1836 37.2982H23.3645L22.8 35.4545L22.2382 37.2982H20.4164L21.8918 38.4273L21.3245 40.2436ZM32.0455 40.2436L33.5345 39.1091L35.0182 40.2436L34.4455 38.4273L35.9155 37.2982H34.0964L33.5318 35.4545L32.9727 37.2982H31.1509L32.6264 38.4273L32.0455 40.2436ZM42.8182 40.2436L44.3073 39.1091L45.7909 40.2436L45.2155 38.4273L46.6936 37.2982H44.8745L44.3073 35.4545L43.7455 37.2982H41.9236L43.3991 38.4273L42.8182 40.2436ZM48.9109 35.4545L50.3918 34.3173L51.8727 35.4545L51.3 33.6273L52.7755 32.5036L50.9455 32.5091L50.3891 30.6655L49.8273 32.5091L48 32.5036L49.4836 33.6273L48.9109 35.4545ZM-4.51364 45.0355L-3.03 43.9091L-1.54909 45.0355L-2.12455 43.2055L-0.649091 42.0818L-2.47091 42.0873L-3.03545 40.2436L-3.59182 42.0873L-5.41636 42.0818L-3.94091 43.2055L-4.51364 45.0355ZM5.29091 45.0355L6.77182 43.9091L8.25545 45.0355L7.68 43.2055L9.15273 42.0818L7.33636 42.0873L6.76909 40.2436L6.21 42.0873L4.39091 42.0818L5.86091 43.2055L5.29091 45.0355ZM16.1045 45.0355L17.5855 43.9091L19.0664 45.0355L18.4936 43.2055L19.9664 42.0818L18.1364 42.0873L17.5827 40.2436L17.0209 42.0873L15.2018 42.0818L16.6773 43.2055L16.1045 45.0355ZM26.8391 45.0355L28.3173 43.9091L29.8009 45.0355L29.2364 43.2055L30.7009 42.0818L28.8791 42.0873L28.3173 40.2436L27.7555 42.0873L25.9364 42.0818L27.4091 43.2055L26.8391 45.0355ZM37.6091 45.0355L39.0927 43.9091L40.5736 45.0355L40.0091 43.2055L41.4736 42.0818L39.6518 42.0873L39.09 40.2436L38.5309 42.0873L36.7091 42.0818L38.1818 43.2055L37.6091 45.0355ZM0.703636 49.8273L2.18455 48.6873L3.66545 49.8273L3.09545 47.9945L4.56546 46.8818H2.74364L2.18182 45.0355L1.62273 46.8818H-0.199091L1.27636 47.9945L0.703636 49.8273ZM10.5082 49.8273L11.9891 48.6873L13.47 49.8273L12.8973 47.9945L14.37 46.8818H12.5455L11.9864 45.0355L11.4245 46.8818H9.60273L11.0809 47.9945L10.5082 49.8273ZM21.3245 49.8273L22.8 48.6873L24.2836 49.8273L23.7 47.9945L25.1836 46.8818H23.3645L22.8 45.0355L22.2382 46.8818H20.4164L21.8918 47.9945L21.3245 49.8273ZM32.0455 49.8273L33.5345 48.6873L35.0182 49.8273L34.4455 47.9945L35.9155 46.8818H34.0964L33.5318 45.0355L32.9727 46.8818H31.1509L32.6264 47.9945L32.0455 49.8273ZM42.8182 49.8273L44.3073 48.6873L45.7909 49.8273L45.2155 47.9945L46.6936 46.8818H44.8745L44.3073 45.0355L43.7455 46.8818H41.9236L43.3991 47.9945L42.8182 49.8273ZM48.9109 45.0355L50.3918 43.9091L51.8727 45.0355L51.3 43.2055L52.7755 42.0818L50.9455 42.0873L50.3891 40.2436L49.8273 42.0873L48 42.0818L49.4836 43.2055L48.9109 45.0355Z" fill="white"/>
</svg>
