<svg width="10" height="10" viewBox="0 0 10 10" fill="none" xmlns="http://www.w3.org/2000/svg">
    <path d="M2.91671 3.75004C2.68754 3.75004 2.49143 3.66837 2.32837 3.50504C2.16504 3.34198 2.08337 3.14587 2.08337 2.91671C2.08337 2.68754 2.16504 2.49143 2.32837 2.32837C2.49143 2.16504 2.68754 2.08337 2.91671 2.08337C3.14587 2.08337 3.34198 2.16504 3.50504 2.32837C3.66837 2.49143 3.75004 2.68754 3.75004 2.91671C3.75004 3.14587 3.66837 3.34198 3.50504 3.50504C3.34198 3.66837 3.14587 3.75004 2.91671 3.75004ZM2.08337 9.16671C1.96532 9.16671 1.86629 9.12671 1.78629 9.04671C1.70657 8.96698 1.66671 8.8681 1.66671 8.75004C1.43754 8.75004 1.24143 8.66851 1.07837 8.50546C0.915041 8.34212 0.833374 8.14587 0.833374 7.91671V5.41671H2.08337V5.10421C2.08337 4.84032 2.17365 4.6181 2.35421 4.43754C2.53476 4.25698 2.75699 4.16671 3.02087 4.16671C3.15976 4.16671 3.28824 4.19448 3.40629 4.25004C3.52435 4.3056 3.63198 4.38199 3.72921 4.47921L4.31254 5.12504C4.3681 5.1806 4.42199 5.23268 4.47421 5.28129C4.52615 5.3299 4.58337 5.37504 4.64587 5.41671H7.50004V2.02087C7.50004 1.92365 7.46532 1.84032 7.39587 1.77087C7.32643 1.70143 7.2431 1.66671 7.14587 1.66671C7.10421 1.66671 7.06435 1.67532 7.02629 1.69254C6.98796 1.71004 6.95143 1.73615 6.91671 1.77087L6.39587 2.29171C6.4306 2.40976 6.43754 2.52615 6.41671 2.64087C6.39587 2.75532 6.35421 2.86115 6.29171 2.95837L5.14587 1.79171C5.2431 1.72921 5.34726 1.68921 5.45837 1.67171C5.56949 1.65449 5.6806 1.66671 5.79171 1.70837L6.31254 1.18754C6.42365 1.07643 6.55032 0.989624 6.69254 0.927124C6.83504 0.864624 6.98615 0.833374 7.14587 0.833374C7.47921 0.833374 7.76046 0.947957 7.98962 1.17712C8.21879 1.40629 8.33337 1.68754 8.33337 2.02087V5.41671H9.16671V7.91671C9.16671 8.14587 9.08518 8.34212 8.92212 8.50546C8.75879 8.66851 8.56254 8.75004 8.33337 8.75004C8.33337 8.8681 8.29337 8.96698 8.21337 9.04671C8.13365 9.12671 8.03476 9.16671 7.91671 9.16671H2.08337ZM1.66671 7.91671H8.33337V6.25004H1.66671V7.91671Z" fill="#C4C4C4"/>
</svg>
