<svg width="10" height="6" viewBox="0 0 10 6" fill="none" xmlns="http://www.w3.org/2000/svg">
    <path d="M0.833374 5.91671V3.41671C0.833374 3.22921 0.871569 3.05907 0.947957 2.90629C1.02435 2.75351 1.12504 2.6181 1.25004 2.50004V1.33337C1.25004 0.986152 1.37157 0.691013 1.61462 0.447957C1.85768 0.204902 2.15282 0.083374 2.50004 0.083374H4.16671C4.32643 0.083374 4.47573 0.112957 4.61462 0.172124C4.75351 0.231013 4.88199 0.312541 5.00004 0.416707C5.1181 0.312541 5.24657 0.231013 5.38546 0.172124C5.52435 0.112957 5.67365 0.083374 5.83337 0.083374H7.50004C7.84726 0.083374 8.1424 0.204902 8.38546 0.447957C8.62851 0.691013 8.75004 0.986152 8.75004 1.33337V2.50004C8.87504 2.6181 8.97574 2.75351 9.05212 2.90629C9.12851 3.05907 9.16671 3.22921 9.16671 3.41671V5.91671H8.33337V5.08337H1.66671V5.91671H0.833374ZM5.41671 2.16671H7.91671V1.33337C7.91671 1.21532 7.87671 1.11629 7.79671 1.03629C7.71698 0.956569 7.6181 0.916707 7.50004 0.916707H5.83337C5.71532 0.916707 5.61643 0.956569 5.53671 1.03629C5.45671 1.11629 5.41671 1.21532 5.41671 1.33337V2.16671ZM2.08337 2.16671H4.58337V1.33337C4.58337 1.21532 4.54351 1.11629 4.46379 1.03629C4.38379 0.956569 4.28476 0.916707 4.16671 0.916707H2.50004C2.38199 0.916707 2.28296 0.956569 2.20296 1.03629C2.12324 1.11629 2.08337 1.21532 2.08337 1.33337V2.16671ZM1.66671 4.25004H8.33337V3.41671C8.33337 3.29865 8.29337 3.19962 8.21337 3.11962C8.13365 3.0399 8.03476 3.00004 7.91671 3.00004H2.08337C1.96532 3.00004 1.86629 3.0399 1.78629 3.11962C1.70657 3.19962 1.66671 3.29865 1.66671 3.41671V4.25004ZM8.33337 4.25004H1.66671C1.66671 4.25004 1.70657 4.25004 1.78629 4.25004C1.86629 4.25004 1.96532 4.25004 2.08337 4.25004H7.91671C8.03476 4.25004 8.13365 4.25004 8.21337 4.25004C8.29337 4.25004 8.33337 4.25004 8.33337 4.25004Z" fill="#C4C4C4"/>
</svg>
