<svg width="8" height="10" viewBox="0 0 8 10" fill="none" xmlns="http://www.w3.org/2000/svg">
    <path d="M4 5.83337C3.88194 5.83337 3.78306 5.79337 3.70333 5.71337C3.62333 5.63365 3.58333 5.53476 3.58333 5.41671C3.58333 5.29865 3.62333 5.19962 3.70333 5.11962C3.78306 5.0399 3.88194 5.00004 4 5.00004C4.11806 5.00004 4.21708 5.0399 4.29708 5.11962C4.37681 5.19962 4.41667 5.29865 4.41667 5.41671C4.41667 5.53476 4.37681 5.63365 4.29708 5.71337C4.21708 5.79337 4.11806 5.83337 4 5.83337ZM2.33333 5.83337C2.21528 5.83337 2.11625 5.79337 2.03625 5.71337C1.95653 5.63365 1.91667 5.53476 1.91667 5.41671C1.91667 5.29865 1.95653 5.19962 2.03625 5.11962C2.11625 5.0399 2.21528 5.00004 2.33333 5.00004C2.45139 5.00004 2.55042 5.0399 2.63042 5.11962C2.71014 5.19962 2.75 5.29865 2.75 5.41671C2.75 5.53476 2.71014 5.63365 2.63042 5.71337C2.55042 5.79337 2.45139 5.83337 2.33333 5.83337ZM5.66667 5.83337C5.54861 5.83337 5.44972 5.79337 5.37 5.71337C5.29 5.63365 5.25 5.53476 5.25 5.41671C5.25 5.29865 5.29 5.19962 5.37 5.11962C5.44972 5.0399 5.54861 5.00004 5.66667 5.00004C5.78472 5.00004 5.88361 5.0399 5.96333 5.11962C6.04333 5.19962 6.08333 5.29865 6.08333 5.41671C6.08333 5.53476 6.04333 5.63365 5.96333 5.71337C5.88361 5.79337 5.78472 5.83337 5.66667 5.83337ZM4 7.50004C3.88194 7.50004 3.78306 7.46004 3.70333 7.38004C3.62333 7.30032 3.58333 7.20143 3.58333 7.08337C3.58333 6.96532 3.62333 6.86643 3.70333 6.78671C3.78306 6.70671 3.88194 6.66671 4 6.66671C4.11806 6.66671 4.21708 6.70671 4.29708 6.78671C4.37681 6.86643 4.41667 6.96532 4.41667 7.08337C4.41667 7.20143 4.37681 7.30032 4.29708 7.38004C4.21708 7.46004 4.11806 7.50004 4 7.50004ZM2.33333 7.50004C2.21528 7.50004 2.11625 7.46004 2.03625 7.38004C1.95653 7.30032 1.91667 7.20143 1.91667 7.08337C1.91667 6.96532 1.95653 6.86643 2.03625 6.78671C2.11625 6.70671 2.21528 6.66671 2.33333 6.66671C2.45139 6.66671 2.55042 6.70671 2.63042 6.78671C2.71014 6.86643 2.75 6.96532 2.75 7.08337C2.75 7.20143 2.71014 7.30032 2.63042 7.38004C2.55042 7.46004 2.45139 7.50004 2.33333 7.50004ZM5.66667 7.50004C5.54861 7.50004 5.44972 7.46004 5.37 7.38004C5.29 7.30032 5.25 7.20143 5.25 7.08337C5.25 6.96532 5.29 6.86643 5.37 6.78671C5.44972 6.70671 5.54861 6.66671 5.66667 6.66671C5.78472 6.66671 5.88361 6.70671 5.96333 6.78671C6.04333 6.86643 6.08333 6.96532 6.08333 7.08337C6.08333 7.20143 6.04333 7.30032 5.96333 7.38004C5.88361 7.46004 5.78472 7.50004 5.66667 7.50004ZM1.08333 9.16671C0.854167 9.16671 0.657917 9.08518 0.494583 8.92212C0.331528 8.75879 0.25 8.56254 0.25 8.33337V2.50004C0.25 2.27087 0.331528 2.07476 0.494583 1.91171C0.657917 1.74837 0.854167 1.66671 1.08333 1.66671H1.5V0.833374H2.33333V1.66671H5.66667V0.833374H6.5V1.66671H6.91667C7.14583 1.66671 7.34208 1.74837 7.50542 1.91171C7.66847 2.07476 7.75 2.27087 7.75 2.50004V8.33337C7.75 8.56254 7.66847 8.75879 7.50542 8.92212C7.34208 9.08518 7.14583 9.16671 6.91667 9.16671H1.08333ZM1.08333 8.33337H6.91667V4.16671H1.08333V8.33337ZM1.08333 3.33337H6.91667V2.50004H1.08333V3.33337Z" fill="#6759FF"/>
</svg>
