<svg width="50" height="24" viewBox="0 0 50 24" fill="none" xmlns="http://www.w3.org/2000/svg">
    <path d="M0 16.5515C0 16.5515 16.5677 12.5138 20.2716 11.8483C23.9755 11.1605 36.7951 6.54601 37.283 6.34635C37.7709 6.14668 39.6118 -0.442305 40.3215 0.023583C41.0534 0.489471 39.2126 3.35135 40.1219 3.7285C41.0312 4.10564 48.7496 0.644768 48.7939 1.26595C48.9048 2.44176 44.1585 3.5732 44.2916 4.10565C44.4468 4.63809 49.1266 2.48613 49.7033 3.28479C50.2799 4.08346 45.0678 4.9265 44.9791 5.3702C44.8904 5.8139 49.9916 5.23709 49.7033 6.19105C49.548 6.72349 45.1565 6.61257 45.334 7.21157C45.5114 7.83275 48.8604 8.43175 48.6387 9.00856C48.4169 9.60756 45.9106 8.12116 44.1807 8.56486C42.4507 9.00856 40.9647 8.43175 38.4363 9.94033C35.8857 11.4267 27.5242 17.7495 21.5802 19.0584C15.6362 20.3674 2.50623 23.2736 2.50623 23.2736L0 16.5515Z" fill="#6759FF"/>
</svg>
