<svg width="16" height="20" viewBox="0 0 16 20" fill="none" xmlns="http://www.w3.org/2000/svg">
    <path d="M5 11V6L8 4L11 6V11H9V8H7V11H5ZM8 17.35C10.0333 15.4833 11.5417 13.7873 12.525 12.262C13.5083 10.7373 14 9.38333 14 8.2C14 6.38333 13.4207 4.89567 12.262 3.737C11.104 2.579 9.68333 2 8 2C6.31667 2 4.89567 2.579 3.737 3.737C2.579 4.89567 2 6.38333 2 8.2C2 9.38333 2.49167 10.7373 3.475 12.262C4.45833 13.7873 5.96667 15.4833 8 17.35ZM8 20C5.31667 17.7167 3.31267 15.5957 1.988 13.637C0.662667 11.679 0 9.86667 0 8.2C0 5.7 0.804333 3.70833 2.413 2.225C4.021 0.741667 5.88333 0 8 0C10.1167 0 11.979 0.741667 13.587 2.225C15.1957 3.70833 16 5.7 16 8.2C16 9.86667 15.3377 11.679 14.013 13.637C12.6877 15.5957 10.6833 17.7167 8 20Z" fill="#6759FF"/>
</svg>
