<svg width="10" height="10" viewBox="0 0 10 10" fill="none" xmlns="http://www.w3.org/2000/svg">
    <path d="M4.15629 3.73964C4.36023 3.53568 4.49911 3.27583 4.55536 2.99294C4.61162 2.71006 4.58273 2.41684 4.47235 2.15038C4.36197 1.88391 4.17505 1.65616 3.93523 1.49592C3.69541 1.33568 3.41347 1.25016 3.12504 1.25016C2.83662 1.25016 2.55467 1.33568 2.31485 1.49592C2.07503 1.65616 1.88811 1.88391 1.77773 2.15038C1.66735 2.41684 1.63846 2.71006 1.69472 2.99294C1.75098 3.27583 1.88986 3.53568 2.09379 3.73964L3.12504 4.77089L4.15629 3.73964ZM3.12504 5.94922L1.50421 4.32922C1.18382 4.00868 0.965667 3.60034 0.87733 3.15583C0.788993 2.71132 0.834438 2.2506 1.00792 1.83192C1.1814 1.41323 1.47513 1.05539 1.85197 0.803621C2.22881 0.551857 2.67184 0.41748 3.12504 0.41748C3.57824 0.41748 4.02127 0.551857 4.39811 0.803621C4.77495 1.05539 5.06868 1.41323 5.24216 1.83192C5.41565 2.2506 5.46109 2.71132 5.37275 3.15583C5.28442 3.60034 5.06626 4.00868 4.74588 4.32922L3.12504 5.95005V5.94922ZM3.12504 3.33339C2.95928 3.33339 2.80031 3.26754 2.6831 3.15033C2.56589 3.03312 2.50004 2.87415 2.50004 2.70839C2.50004 2.54263 2.56589 2.38365 2.6831 2.26644C2.80031 2.14923 2.95928 2.08339 3.12504 2.08339C3.2908 2.08339 3.44977 2.14923 3.56698 2.26644C3.68419 2.38365 3.75004 2.54263 3.75004 2.70839C3.75004 2.87415 3.68419 3.03312 3.56698 3.15033C3.44977 3.26754 3.2908 3.33339 3.12504 3.33339V3.33339ZM6.87504 8.52089L7.90629 7.48964C8.11023 7.28568 8.24911 7.02583 8.30536 6.74294C8.36162 6.46006 8.33273 6.16684 8.22235 5.90038C8.11197 5.63391 7.92505 5.40616 7.68523 5.24592C7.44541 5.08568 7.16347 5.00016 6.87504 5.00016C6.58662 5.00016 6.30467 5.08568 6.06485 5.24592C5.82503 5.40616 5.63811 5.63391 5.52773 5.90038C5.41735 6.16684 5.38846 6.46006 5.44472 6.74294C5.50098 7.02583 5.63986 7.28568 5.84379 7.48964L6.87504 8.52089ZM8.49587 8.07922L6.87504 9.69922L5.25421 8.0788C4.93382 7.75826 4.71567 7.34993 4.62733 6.90542C4.53899 6.46091 4.58444 6.00018 4.75792 5.5815C4.9314 5.16281 5.22513 4.80497 5.60197 4.5532C5.97881 4.30144 6.42184 4.16706 6.87504 4.16706C7.32825 4.16706 7.77127 4.30144 8.14811 4.5532C8.52495 4.80497 8.81868 5.16281 8.99216 5.5815C9.16565 6.00018 9.21109 6.46091 9.12275 6.90542C9.03442 7.34993 8.81626 7.75826 8.49587 8.0788V8.07922ZM6.87504 7.08339C6.70928 7.08339 6.55031 7.01754 6.4331 6.90033C6.31589 6.78312 6.25004 6.62415 6.25004 6.45839C6.25004 6.29263 6.31589 6.13365 6.4331 6.01644C6.55031 5.89923 6.70928 5.83339 6.87504 5.83339C7.0408 5.83339 7.19977 5.89923 7.31698 6.01644C7.43419 6.13365 7.50004 6.29263 7.50004 6.45839C7.50004 6.62415 7.43419 6.78312 7.31698 6.90033C7.19977 7.01754 7.0408 7.08339 6.87504 7.08339V7.08339Z" fill="#C4C4C4"/>
</svg>
