<svg width="10" height="10" viewBox="0 0 10 10" fill="none" xmlns="http://www.w3.org/2000/svg">
    <path d="M6.37504 6.95837L6.95837 6.37504L5.41671 4.83337V2.91671H4.58337V5.16671L6.37504 6.95837ZM5.00004 9.16671C4.42365 9.16671 3.88199 9.05726 3.37504 8.83837C2.8681 8.61976 2.42712 8.32296 2.05212 7.94796C1.67712 7.57296 1.38032 7.13198 1.16171 6.62504C0.942819 6.1181 0.833374 5.57643 0.833374 5.00004C0.833374 4.42365 0.942819 3.88199 1.16171 3.37504C1.38032 2.8681 1.67712 2.42712 2.05212 2.05212C2.42712 1.67712 2.8681 1.38018 3.37504 1.16129C3.88199 0.94268 4.42365 0.833374 5.00004 0.833374C5.57643 0.833374 6.1181 0.94268 6.62504 1.16129C7.13198 1.38018 7.57296 1.67712 7.94796 2.05212C8.32296 2.42712 8.61976 2.8681 8.83837 3.37504C9.05726 3.88199 9.16671 4.42365 9.16671 5.00004C9.16671 5.57643 9.05726 6.1181 8.83837 6.62504C8.61976 7.13198 8.32296 7.57296 7.94796 7.94796C7.57296 8.32296 7.13198 8.61976 6.62504 8.83837C6.1181 9.05726 5.57643 9.16671 5.00004 9.16671ZM5.00004 8.33337C5.92365 8.33337 6.71018 8.00879 7.35962 7.35962C8.00879 6.71018 8.33337 5.92365 8.33337 5.00004C8.33337 4.07643 8.00879 3.2899 7.35962 2.64046C6.71018 1.99129 5.92365 1.66671 5.00004 1.66671C4.07643 1.66671 3.29004 1.99129 2.64087 2.64046C1.99143 3.2899 1.66671 4.07643 1.66671 5.00004C1.66671 5.92365 1.99143 6.71018 2.64087 7.35962C3.29004 8.00879 4.07643 8.33337 5.00004 8.33337Z" fill="#C4C4C4"/>
</svg>
